# xmcd CD database file generated by OrangeCD 5.2
#
# Track frame offsets:
#	150
#	14109
#	27018
#	41282
#	55061
#	69554
#	80237
#	91172
#	103390
#	121636
#	136274
#	151473
#	165075
#	179327
#	192646
#	207300
#	225903
#	237623
#	248114
#	261308
#	280400
#	297711
#	312578
#	328573
#	347498
#
# Disc length: 4791 seconds
#
# Revision: 0
# Processed by: cddbd v1.5.1PL0 Copyright (c) Steve Scherf et al.
# Submitted via: OrangeCD 5.2
#
DISCID=6f12b519
DTITLE=Various Artists Country - New Country Volume 1 CD2
DYEAR=1900
DGENRE=Country
TTITLE0=Joe Nichols - I Hate The Way I Love You
TTITLE1=Townes Van Zandt - Gone Too Long
TTITLE2=Slim Whitman - I Talk To The Waves
TTITLE3=Perfect Stranger - Fire When Ready
TTITLE4=Jack Ingram - That's Not Me
TTITLE5=Roger Miller - Husbands And Wives
TTITLE6=The Statler Brothers - Bed Of Rose's
TTITLE7=Kentucky Headhunters - Singin' The Blues
TTITLE8=Lee Roy Parnell - Honky Tonk Night Time Man
TTITLE9=Ricky Van Shelton - She Needs Me
TTITLE10=Chris Thile - The Road To Wrigley
TTITLE11=Derailers - California Angel
TTITLE12=John Anderson - South Moon Under
TTITLE13=Toby Keith - Jackey Don Tucker
TTITLE14=Whiskeytown - Excuse Me While I Break My Own Heart Tonight
TTITLE15=Wild Frontier - Jack London
TTITLE16=Rich McCready - Let Me Take That Ol' Heartache
TTITLE17=David Lee Murphy - Kentucky Girl
TTITLE18=LeRoy Preston - The Other Side Of You
TTITLE19=Seconds Flat - Me And My Friend Heartache
TTITLE20=Ricky Staggs - Hillbilly Highway
TTITLE21=Red Steagall - Dear Mama, I'm A Cowboy
TTITLE22=Wylie and The Wild West - Hello Heartache
TTITLE23=Jerry Jeff Walker - Nolan Ryan (He's A Hero To Us All)
TTITLE24=Daryle Singletary - The Real Deal
EXTD=
EXTT0=
EXTT1=
EXTT2=
EXTT3=
EXTT4=
EXTT5=
EXTT6=
EXTT7=
EXTT8=
EXTT9=
EXTT10=
EXTT11=
EXTT12=
EXTT13=
EXTT14=
EXTT15=
EXTT16=
EXTT17=
EXTT18=
EXTT19=
EXTT20=
EXTT21=
EXTT22=
EXTT23=
EXTT24=
PLAYORDER=
